<?xml version="1.0" encoding="UTF-8" standalone="no"?>
<!-- Created with Inkscape (http://www.inkscape.org/) -->

<svg
   width="1891.028"
   height="2112.0151"
   viewBox="0 0 500.33449 558.80402"
   version="1.1"
   id="svg1"
   xmlns="http://www.w3.org/2000/svg"
   xmlns:svg="http://www.w3.org/2000/svg">
  <defs
     id="defs1">
    <linearGradient
       id="swatch106">
      <stop
         style="stop-color:#de8787;stop-opacity:1;"
         offset="0"
         id="stop107" />
    </linearGradient>
  </defs>
  <g
     id="layer1"
     transform="translate(-0.07962802,5.5602492)">
    <g
       id="g12"
       style="display:inline;mix-blend-mode:normal;fill:#dde6ed;fill-opacity:1;stroke:#dde6ed;stroke-width:0.396875;stroke-dasharray:none;stroke-opacity:1">
      <path
         style="fill:#dde6ed;fill-opacity:1;stroke:#dde6ed;stroke-width:0.396875;stroke-dasharray:none;stroke-opacity:1"
         d="M 215,283.798 H 162.05729 L 0.39687489,310.65683 11.90625,282.31041 215,194.33646 Z"
         id="path2" />
      <path
         style="fill:#dde6ed;fill-opacity:1;stroke:#dde6ed;stroke-width:0.396875;stroke-dasharray:none;stroke-opacity:1"
         d="m 224.7068,447.10238 -66.08909,34.83616 -3.83646,18.25624 86.61796,-16.53645"
         id="path3" />
      <path
         style="fill:#dde6ed;fill-opacity:1;stroke:#dde6ed;stroke-width:0.396875;stroke-dasharray:none;stroke-opacity:1"
         d="m 285.49375,283.798 h 52.94271 L 500.09688,310.65683 488.5875,282.31041 285.49375,194.33646 Z"
         id="path7" />
      <path
         style="display:inline;mix-blend-mode:normal;fill:#dde6ed;fill-opacity:1;stroke:#dde6ed;stroke-width:0.396875;stroke-dasharray:none;stroke-opacity:1"
         d="m 275.78695,447.10238 66.08909,34.83616 3.83646,18.25624 -86.61796,-16.53645"
         id="path8" />
    </g>
    <g
       id="g5"
       style="display:inline;mix-blend-mode:normal;fill:#526d82;fill-opacity:1;stroke:#526d82;stroke-width:0.396875;stroke-dasharray:none;stroke-opacity:1">
      <path
         style="fill:#526d82;fill-opacity:1;stroke:#526d82;stroke-width:0.321017;stroke-dasharray:none;stroke-opacity:1"
         d="M 232.58468,10.58481 C 222.91847,25.01615 215.4266,43.284915 215,54.73148 c -0.29698,7.968755 -0.0537,350.26559 0,351.12605 1.85106,29.67075 19.96909,66.23468 21.69036,69.4463 1.32546,2.47313 13.30964,24.27151 13.30964,24.27151 0,0 12.47793,-21.79838 13.80339,-24.27151 1.72127,-3.21162 19.8393,-39.77555 21.69036,-69.4463 0.0537,-0.86046 0.29698,-343.157295 0,-351.12605 C 285.06715,43.284915 277.57528,25.01615 267.90907,10.58481 260.62426,-0.29117997 257.94047,-5.399742 250,-5.3997409 c -7.94046,1.1e-6 -10.13051,5.10856093 -17.41532,15.9845509 z"
         id="path1" />
      <path
         style="fill:#526d82;fill-opacity:1;stroke:#526d82;stroke-width:0.396875;stroke-dasharray:none;stroke-opacity:1"
         d="m 82.209583,213.01747 c 0,0 -0.401147,11.33797 -0.514494,16.88711 -0.330729,16.19159 0.448348,21.64874 0.448348,21.64874 L 117.719,236.51217 c 0,0 0.0936,-6.28107 0.0936,-7.58579 0,-6.50134 -0.33859,-15.96451 -0.33859,-15.96451 0,0 -10.97968,-1.71599 -16.6361,-1.83431 -6.370134,-0.13326 -18.628277,1.88991 -18.628277,1.88991 z"
         id="path4" />
      <path
         style="fill:#526d82;fill-opacity:1;stroke:#526d82;stroke-width:0.396875;stroke-dasharray:none;stroke-opacity:1"
         d="m 147.29739,184.44229 c 0,0 -0.40115,11.33797 -0.5145,16.88711 -0.33073,16.19159 0.40158,22.16323 0.40158,22.16323 l 35.62244,-15.55564 c 0,0 0.0936,-6.28107 0.0936,-7.58579 0,-6.50134 -0.33859,-15.96451 -0.33859,-15.96451 0,0 -10.97968,-1.71599 -16.6361,-1.83431 -6.37017,-0.13326 -18.62838,1.88991 -18.62838,1.88991 z"
         id="path10" />
      <path
         style="fill:#526d82;fill-opacity:1;stroke:#526d82;stroke-width:0.396875;stroke-dasharray:none;stroke-opacity:1"
         d="m 417.84976,213.01747 c 0,0 0.40115,11.33797 0.51449,16.88711 0.33073,16.19159 -0.44834,21.64874 -0.44834,21.64874 l -35.57557,-15.04115 c 0,0 -0.0936,-6.28107 -0.0936,-7.58579 0,-6.50134 0.33859,-15.96451 0.33859,-15.96451 0,0 10.97968,-1.71599 16.6361,-1.83431 6.37014,-0.13326 18.62828,1.88991 18.62828,1.88991 z"
         id="path11" />
      <path
         style="fill:#526d82;fill-opacity:1;stroke:#526d82;stroke-width:0.396875;stroke-dasharray:none;stroke-opacity:1"
         d="m 352.76195,184.44229 c 0,0 0.40115,11.33797 0.5145,16.88711 0.33073,16.19159 -0.40158,22.16323 -0.40158,22.16323 l -35.62251,-15.55564 c 0,0 -0.0936,-6.28107 -0.0936,-7.58579 0,-6.50134 0.33859,-15.96451 0.33859,-15.96451 0,0 10.97971,-1.71599 16.63616,-1.83431 6.37018,-0.13326 18.62839,1.88991 18.62839,1.88991 z"
         id="path12" />
    </g>
    <g
       id="g62"
       style="display:inline;mix-blend-mode:normal;fill:#27374d;fill-opacity:1;stroke:#526d82;stroke-width:0.396875;stroke-dasharray:none;stroke-opacity:1">
      <path
         style="display:inline;mix-blend-mode:normal;fill:#27374d;fill-opacity:1;stroke:#526d82;stroke-width:0.396875;stroke-dasharray:none;stroke-opacity:1"
         d="M 218.53098,389.96067 219.58931,63 c 0,0 20.14606,-5.332027 30.28925,-5.332027 10.14319,0 30.56988,5.332027 30.56988,5.332027 l 1.05833,334.26928 c 0,0 -20.99193,-4.79545 -31.48789,-4.77875 -10.49597,0.0166 -31.4879,4.87855 -31.4879,4.87855 z"
         id="path62" />
    </g>
    <g
       id="g120"
       style="display:inline;mix-blend-mode:normal;fill:#000000;fill-opacity:1;stroke:#526d82;stroke-width:0.396875;stroke-dasharray:none;stroke-opacity:1">
      <path
         style="display:inline;mix-blend-mode:darken;fill:#000000;fill-opacity:1;stroke:#526d82;stroke-width:0.396875;stroke-dasharray:none;stroke-opacity:1"
         d="m 241.8371,37.248784 0.0122,-12.047533 c 2.70402,-0.68275 5.41248,-1.086461 8.16957,-1.12003 2.75404,-0.03353 5.46196,0.333681 8.16958,1.020314 l 0.0122,12.047533 c -2.7402,-0.329043 -5.46912,-0.375584 -8.20065,-0.322724 -2.73172,0.0172 -5.43768,0.117021 -8.1629,0.42244 z"
         id="path52" />
      <path
         style="display:inline;mix-blend-mode:darken;fill:#000000;fill-opacity:1;stroke:#526d82;stroke-width:0.396875;stroke-dasharray:none;stroke-opacity:1"
         d="m 227.11748,40.594341 c 0,0 0.58665,-8.575112 3.27768,-11.404515 2.60937,-2.743544 10.59601,-3.845964 10.59601,-3.845964 l -0.0296,12.017702 c 0,0 -4.4377,0.881943 -6.78377,1.435163 -2.22372,0.524372 -7.0603,1.797614 -7.0603,1.797614 z"
         id="path51" />
      <path
         style="display:inline;mix-blend-mode:darken;fill:#000000;fill-opacity:1;stroke:#526d82;stroke-width:0.396875;stroke-dasharray:none;stroke-opacity:1"
         d="m 272.92027,40.494625 c 0,0 -0.58665,-8.575112 -3.27768,-11.404515 -2.60937,-2.743544 -10.59601,-3.845964 -10.59601,-3.845964 l 0.0296,12.017702 c 0,0 4.4377,0.881943 6.78377,1.435163 2.22372,0.524372 7.0603,1.797614 7.0603,1.797614 z"
         id="path78" />
    </g>
    <g
       id="g121"
       style="display:inline;mix-blend-mode:normal;fill:#9db2bf;fill-opacity:1;stroke:#9db2bf;stroke-width:0.396875;stroke-dasharray:none;stroke-opacity:1">
      <path
         style="fill:#9db2bf;fill-opacity:1;stroke:#9db2bf;stroke-width:0.396875;stroke-dasharray:none;stroke-opacity:1"
         d="m 147.28413,184.47579 c 0,0 11.88725,0.29199 17.83999,0.27855 5.81429,-0.0131 17.42132,-0.33845 17.42132,-0.33845 l 0.11973,3.83144 c 0,0 -11.72698,0.32684 -17.66013,0.30745 -5.95538,-0.0195 -17.82567,-0.42718 -17.82567,-0.42718 z"
         id="path57" />
      <path
         style="fill:#9db2bf;fill-opacity:1;stroke:#9db2bf;stroke-width:0.396875;stroke-dasharray:none;stroke-opacity:1"
         d="m 82.196325,213.05097 c 0,0 11.887177,0.29199 17.839885,0.27855 5.81429,-0.0131 17.42132,-0.33845 17.42132,-0.33845 l 0.11973,3.83144 c 0,0 -11.72698,0.32684 -17.660124,0.30745 -5.955354,-0.0195 -17.825576,-0.42718 -17.825576,-0.42718 z"
         id="path58" />
      <path
         style="fill:#9db2bf;fill-opacity:1;stroke:#9db2bf;stroke-width:0.396875;stroke-dasharray:none;stroke-opacity:1"
         d="m 94.739012,295.12569 2.549448,11.74105 1.137459,-10e-6 0.538797,-12.45215 z"
         id="path60" />
      <path
         style="fill:#9db2bf;fill-opacity:1;stroke:#9db2bf;stroke-width:0.396875;stroke-dasharray:none;stroke-opacity:1"
         d="m 136.54341,288.24648 2.54946,11.74105 1.13747,-10e-6 0.5388,-12.45215 z"
         id="path61" />
      <path
         style="fill:#9db2bf;fill-opacity:1;stroke:#9db2bf;stroke-width:0.396875;stroke-dasharray:none;stroke-opacity:1"
         d="m 352.75363,184.37607 c 0,0 -11.88726,0.29199 -17.84,0.27855 -5.81429,-0.0131 -17.42132,-0.33845 -17.42132,-0.33845 l -0.11973,3.83144 c 0,0 11.72698,0.32684 17.66013,0.30745 5.95538,-0.0195 17.82568,-0.42718 17.82568,-0.42718 z"
         id="path84" />
      <path
         style="fill:#9db2bf;fill-opacity:1;stroke:#9db2bf;stroke-width:0.396875;stroke-dasharray:none;stroke-opacity:1"
         d="m 417.84143,212.95125 c 0,0 -11.88717,0.29199 -17.83988,0.27855 -5.81429,-0.0131 -17.42132,-0.33845 -17.42132,-0.33845 l -0.11973,3.83144 c 0,0 11.72698,0.32684 17.66012,0.30745 5.95536,-0.0195 17.82558,-0.42718 17.82558,-0.42718 z"
         id="path85" />
      <path
         style="fill:#9db2bf;fill-opacity:1;stroke:#9db2bf;stroke-width:0.396875;stroke-dasharray:none;stroke-opacity:1"
         d="m 444.4571,301.37601 -2.54944,11.74105 -1.13746,-10e-6 -0.5388,-12.45215 z"
         id="path86" />
      <path
         style="fill:#9db2bf;fill-opacity:1;stroke:#9db2bf;stroke-width:0.396875;stroke-dasharray:none;stroke-opacity:1"
         d="m 405.29875,295.02597 -2.54945,11.74105 -1.13746,-10e-6 -0.5388,-12.45215 z"
         id="path87" />
      <path
         style="fill:#9db2bf;fill-opacity:1;stroke:#9db2bf;stroke-width:0.396875;stroke-dasharray:none;stroke-opacity:1"
         d="m 363.49435,288.14676 -2.54946,11.74105 -1.13747,-10e-6 -0.5388,-12.45215 z"
         id="path88" />
      <path
         style="display:inline;mix-blend-mode:darken;fill:#9db2bf;fill-opacity:1;stroke:#9db2bf;stroke-width:0.396875;stroke-dasharray:none;stroke-opacity:1"
         d="m 55.580654,301.47573 2.549448,11.74105 1.137459,-1e-5 0.538797,-12.45215 z"
         id="path59" />
    </g>
    <g
       id="g18"
       style="fill:#c9d8e2;fill-opacity:1;stroke:none">
      <path
         style="fill:#c9d8e2;fill-opacity:1;stroke:none;stroke-width:0.396875;stroke-dasharray:none;stroke-opacity:1"
         d="m 51.820174,292.93419 -32.549377,6.65203 -0.365943,8.01756 33.736671,-5.4543 z"
         id="path18" />
      <path
         style="fill:#c9d8e2;fill-opacity:1;stroke:none;stroke-width:0.396875;stroke-dasharray:none;stroke-opacity:1"
         d="m 214.52917,261.94166 h -54 v 22 h 54 z"
         id="path13" />
      <path
         style="fill:#c9d8e2;fill-opacity:1;stroke:none;stroke-width:0.396875;stroke-dasharray:none;stroke-opacity:1"
         d="m 160.18594,261.91127 -55.10399,15.54934 1.68264,15.64921 53.51275,-8.7848 z"
         id="path16" />
      <path
         style="fill:#c9d8e2;fill-opacity:1;stroke:none;stroke-width:0.396875;stroke-dasharray:none;stroke-opacity:1"
         d="m 104.86497,277.56284 -52.854734,15.25168 0.90493,9.31457 53.529494,-8.89938 z"
         id="path17" />
      <path
         style="fill:#c9d8e2;fill-opacity:1;stroke:none;stroke-width:0.396875;stroke-dasharray:none;stroke-opacity:1"
         d="m 227.82643,467.49081 -53.57848,13.25543 1.31157,15.69929 58.87954,-11.15595 z"
         id="path19" />
      <path
         style="display:inline;mix-blend-mode:normal;fill:#c9d8e2;fill-opacity:1;stroke:none;stroke-width:0.396875;stroke-dasharray:none;stroke-opacity:1"
         d="m 250,553.24374 -3.40833,-90.35521 c 0,0 -0.63212,-8.9879 0.79374,-18.38853 C 247.83567,441.53146 250,438.41458 250,438.41458"
         id="path20" />
      <path
         style="fill:#c9d8e2;fill-opacity:1;stroke:none;stroke-width:0.396875;stroke-dasharray:none;stroke-opacity:1"
         d="m 448.17983,292.93419 32.54938,6.65203 0.36594,8.01756 -33.73667,-5.4543 z"
         id="path26" />
      <path
         style="fill:#c9d8e2;fill-opacity:1;stroke:none;stroke-width:0.396875;stroke-dasharray:none;stroke-opacity:1"
         d="m 285.47083,261.94166 h 54 v 22 h -54 z"
         id="path27" />
      <path
         style="fill:#c9d8e2;fill-opacity:1;stroke:none;stroke-width:0.396875;stroke-dasharray:none;stroke-opacity:1"
         d="m 339.81406,261.91127 55.10399,15.54934 -1.68264,15.64921 -53.51275,-8.7848 z"
         id="path28" />
      <path
         style="fill:#c9d8e2;fill-opacity:1;stroke:none;stroke-width:0.396875;stroke-dasharray:none;stroke-opacity:1"
         d="m 395.13503,277.56284 52.85474,15.25168 -0.90493,9.31457 -53.5295,-8.89938 z"
         id="path29" />
      <path
         style="fill:#c9d8e2;fill-opacity:1;stroke:none;stroke-width:0.396875;stroke-dasharray:none;stroke-opacity:1"
         d="m 272.17357,467.49081 53.57848,13.25543 -1.31157,15.69929 -58.87954,-11.15595 z"
         id="path30" />
      <path
         style="display:inline;mix-blend-mode:normal;fill:#c9d8e2;fill-opacity:1;stroke:none;stroke-width:0.396875;stroke-dasharray:none;stroke-opacity:1"
         d="m 250,553.24374 3.40833,-90.35521 c 0,0 0.63212,-8.9879 -0.79374,-18.38853 C 252.16433,441.53146 250,438.41458 250,438.41458"
         id="path31" />
    </g>
  </g>
</svg>
