<?xml version="1.0" encoding="UTF-8" standalone="no"?>
<!-- Created with Inkscape (http://www.inkscape.org/) -->

<svg
   width="32"
   height="32"
   viewBox="0 0 32 32"
   version="1.1"
   id="svg1"
   xml:space="preserve"
   sodipodi:docname="plane_icon.svg"
   inkscape:export-filename="plane_icon.svg"
   inkscape:export-xdpi="96"
   inkscape:export-ydpi="96"
   inkscape:version="1.4.2 (f4327f4, 2025-05-13)"
   xmlns:inkscape="http://www.inkscape.org/namespaces/inkscape"
   xmlns:sodipodi="http://sodipodi.sourceforge.net/DTD/sodipodi-0.dtd"
   xmlns="http://www.w3.org/2000/svg"
   xmlns:svg="http://www.w3.org/2000/svg"><sodipodi:namedview
     id="namedview1"
     pagecolor="#ffffff"
     bordercolor="#000000"
     borderopacity="0.25"
     inkscape:showpageshadow="2"
     inkscape:pageopacity="0.0"
     inkscape:pagecheckerboard="0"
     inkscape:deskcolor="#d1d1d1"
     inkscape:zoom="27.40625"
     inkscape:cx="16"
     inkscape:cy="16"
     inkscape:window-width="2560"
     inkscape:window-height="1057"
     inkscape:window-x="-8"
     inkscape:window-y="-8"
     inkscape:window-maximized="1"
     inkscape:current-layer="svg1" /><defs
     id="defs1" /><g
     id="layer1"
     style="fill:#000000;fill-opacity:1;stroke:#000000;stroke-opacity:1"><g
       id="layer1-8"
       transform="matrix(0.05703025,0,0,0.05703025,1.728358,0.79646261)"
       style="fill:#000000;fill-opacity:1;stroke:#000000;stroke-opacity:1"><g
         id="g12"
         style="display:inline;mix-blend-mode:normal;fill:#000000;fill-opacity:1;stroke:#000000;stroke-width:0.396875;stroke-dasharray:none;stroke-opacity:1"><path
           style="fill:#000000;fill-opacity:1;stroke:#000000;stroke-width:0.396875;stroke-dasharray:none;stroke-opacity:1"
           d="M 215,283.798 H 162.05729 L 0.39687489,310.65683 11.90625,282.31041 215,194.33646 Z"
           id="path2" /><path
           style="fill:#000000;fill-opacity:1;stroke:#000000;stroke-width:0.396875;stroke-dasharray:none;stroke-opacity:1"
           d="m 224.7068,447.10238 -66.08909,34.83616 -3.83646,18.25624 86.61796,-16.53645"
           id="path3" /><path
           style="fill:#000000;fill-opacity:1;stroke:#000000;stroke-width:0.396875;stroke-dasharray:none;stroke-opacity:1"
           d="m 285.49375,283.798 h 52.94271 L 500.09688,310.65683 488.5875,282.31041 285.49375,194.33646 Z"
           id="path7" /><path
           style="display:inline;mix-blend-mode:normal;fill:#000000;fill-opacity:1;stroke:#000000;stroke-width:0.396875;stroke-dasharray:none;stroke-opacity:1"
           d="m 275.78695,447.10238 66.08909,34.83616 3.83646,18.25624 -86.61796,-16.53645"
           id="path8" /></g><g
         id="g5"
         style="display:inline;mix-blend-mode:normal;fill:#000000;fill-opacity:1;stroke:#000000;stroke-width:0.396875;stroke-dasharray:none;stroke-opacity:1"><path
           style="fill:#000000;fill-opacity:1;stroke:#000000;stroke-width:0.321017;stroke-dasharray:none;stroke-opacity:1"
           d="M 232.58468,10.58481 C 222.91847,25.01615 215.4266,43.284915 215,54.73148 c -0.29698,7.968755 -0.0537,350.26559 0,351.12605 1.85106,29.67075 19.96909,66.23468 21.69036,69.4463 1.32546,2.47313 13.30964,24.27151 13.30964,24.27151 0,0 12.47793,-21.79838 13.80339,-24.27151 1.72127,-3.21162 19.8393,-39.77555 21.69036,-69.4463 0.0537,-0.86046 0.29698,-343.157295 0,-351.12605 C 285.06715,43.284915 277.57528,25.01615 267.90907,10.58481 260.62426,-0.29117997 257.94047,-5.399742 250,-5.3997409 c -7.94046,1.1e-6 -10.13051,5.10856093 -17.41532,15.9845509 z"
           id="path1" /></g></g></g></svg>
